<?xml version="1.0" encoding="UTF-8"?>
<svg id="Icon" xmlns="http://www.w3.org/2000/svg" viewBox="0 0 184.94 197.33">
  <defs>
    <style>
      .cls-1 {
        fill: #ba141a;
        fill-rule: evenodd;
      }
    </style>
  </defs>
  <path class="cls-1" d="M89.68,122.21c26.15-.95,54.64-5.99,73.44-23.68,15.93-14.99,25.23-37.2,20.66-58.78C178.42,14.5,154.06,1.59,125.81.17c-17.51-.88-45.87,1.54-61.25,10.7-11.39,6.78-19.77,17.52-25.13,32.22,6.82-9.11,16.66-14.2,29.17-15.95l8.6-.68,59.01-3.79c.45-.03.89,0,1.33.1,3.62.8,5.64,5.06,5.91,8.45.26,3.33-1.03,7.98-4.47,9.29-.41.16-.83.25-1.26.28l-74.22,5-3.05.24c-31.16,3-28.24,18.11-37.76,45.54,6.84-9.46,16.81-14.71,29.58-16.5l8.6-.68,56.39-4.81c.44-.03.89,0,1.32.1,3.62.79,5.63,5.08,5.9,8.46.26,3.34-1.04,7.96-4.48,9.29-.41.16-.83.26-1.27.29l-71.58,6.01-3.04.24c-32.86,3.17-30.52,23.83-40.73,53.27,23.29-26.5,54.95-23.86,86.3-25.01h0ZM58.9,195.73l-.3.11c-3.8,1.41-8.26,1.51-12.26,1.48-13.92-.1-42.47-3.02-46-20.29-1.66-8.1,3.14-16.87,9.44-23.73,6.03-6.56,13.88-12.1,20.57-14.96,15.48-6.63,33.28-6.69,50.88-7.05l-22.33,64.43Z"/>
</svg>
